# xmcd CD database file
#
# Track frame offsets:
#	150
#	22940
#	34557
#	50271
#	100643
#	141763
#	206627
#	262643
#	267381
#
# Disc length: 3652 seconds
#
# Revision: 0
# Processed by: cddbd v1.5.2PL0 Copyright (c) Steve Scherf et al.
# Submitted via: CDex 1.70beta2
#
DISCID=6b0e4209
DTITLE=渋さ知らズ - 巴里渋舞曲(Disc-2)
DYEAR=2007
DGENRE=Jazz
TTITLE0=We Are Fisherman's Band 
TTITLE1=Watabe MC 
TTITLE2=We Are Fisherman's Band 
TTITLE3=Lion 
TTITLE4=ひこうき
TTITLE5=ナーダム 
TTITLE6=本多工務店のテーマ 
TTITLE7=仙頭 
TTITLE8=ステキチ
EXTD=YEAR: 2007
EXTT0=
EXTT1=
EXTT2=
EXTT3=
EXTT4=
EXTT5=
EXTT6=
EXTT7=
EXTT8=
PLAYORDER=
